<svg xmlns="http://www.w3.org/2000/svg" version="1.1" xmlns:xlink="http://www.w3.org/1999/xlink" xmlns:svgjs="http://svgjs.dev/svgjs" width="1000" height="338" viewBox="0 0 1000 338"><g transform="matrix(1,0,0,1,0.1066666666666265,0.2920867338406197)"><svg viewBox="0 0 375 127" data-background-color="#ffffff" preserveAspectRatio="xMidYMid meet" height="338" width="1000" xmlns="http://www.w3.org/2000/svg" xmlns:xlink="http://www.w3.org/1999/xlink"><g id="tight-bounds" transform="matrix(1,0,0,1,-0.03976036071776434,-0.10974856567383995)"><svg viewBox="0 0 375.07952880859375 127.2194595336914" height="127.2194595336914" width="375.07952880859375"><g><svg></svg></g><g><svg viewBox="0 0 375.07952880859375 127.2194595336914" height="127.2194595336914" width="375.07952880859375"><g transform="matrix(1,0,0,1,-10.220239639282227,-61.779502868652344)"><path xmlns="http://www.w3.org/2000/svg" d="M10.22 185.421v-123.641h375.08v123.641l-78.972 0v-3.932h75.04v-115.778h-367.216v115.778h75.04l0 3.932z" fill="#4d7e3e" fill-rule="nonzero" stroke="none" stroke-width="1" stroke-linecap="butt" stroke-linejoin="miter" stroke-miterlimit="10" stroke-dasharray="" stroke-dashoffset="0" font-family="none" font-weight="none" font-size="none" text-anchor="none" style="mix-blend-mode: normal" data-fill-palette-color="tertiary"></path><g><path xmlns="http://www.w3.org/2000/svg" d="M100.987 188.845v-10.781h4.621v1.54h-2.926v2.85h2.325v1.54h-2.325v3.311h2.926v1.54zM106.578 188.845v-10.781h2.418l1.078 7.716h0.031l1.078-7.716h2.418v10.781h-1.602v-8.163h-0.031l-1.232 8.163h-1.417l-1.232-8.163h-0.03v8.163zM114.864 188.845v-10.781h2.495c0.842 0 1.473 0.226 1.894 0.678 0.421 0.452 0.631 1.114 0.632 1.987v0 1.062c0 0.873-0.21 1.535-0.632 1.987-0.421 0.452-1.052 0.678-1.894 0.678v0h-0.801v4.389zM116.558 182.916h0.801c0.277 0 0.486-0.077 0.625-0.231 0.138-0.154 0.206-0.416 0.206-0.786v0-1.278c0-0.37-0.069-0.631-0.206-0.786-0.14-0.154-0.348-0.231-0.625-0.231v0h-0.801zM123.257 188.999c-0.832 0-1.468-0.236-1.909-0.708-0.442-0.472-0.662-1.14-0.663-2.003v0-5.667c0-0.862 0.221-1.53 0.663-2.002 0.442-0.472 1.078-0.708 1.909-0.709v0c0.832 0 1.468 0.236 1.91 0.709 0.442 0.472 0.662 1.14 0.662 2.002v0 5.667c0 0.862-0.221 1.53-0.662 2.003-0.442 0.472-1.078 0.708-1.91 0.708zM123.257 187.459c0.585 0 0.878-0.354 0.878-1.063v0-5.883c0-0.708-0.293-1.063-0.878-1.063v0c-0.585 0-0.878 0.354-0.877 1.063v0 5.883c0 0.708 0.293 1.063 0.877 1.063zM127.662 188.845l-1.093-10.781h1.632l0.755 8.286h0.031l0.8-8.286h1.849l0.8 8.286h0.031l0.755-8.286h1.463l-1.094 10.781h-2.109l-0.771-7.269h-0.03l-0.77 7.269zM135.547 188.845v-10.781h4.621v1.54h-2.926v2.85h2.325v1.54h-2.325v3.311h2.926v1.54zM141.138 188.845v-10.781h2.51c0.873 0 1.509 0.203 1.91 0.61 0.4 0.405 0.601 1.028 0.601 1.87v0 0.662c0 1.119-0.37 1.828-1.109 2.125v0 0.031c0.411 0.123 0.701 0.375 0.872 0.755 0.168 0.38 0.253 0.888 0.252 1.525v0 1.894c0 0.308 0.01 0.556 0.031 0.745 0.021 0.191 0.072 0.379 0.154 0.564v0h-1.725c-0.062-0.175-0.103-0.339-0.123-0.493-0.021-0.154-0.031-0.431-0.031-0.832v0-1.971c0-0.493-0.079-0.837-0.237-1.032-0.16-0.195-0.435-0.293-0.826-0.292v0h-0.585v4.62zM142.832 182.685h0.616c0.339 0 0.593-0.087 0.764-0.262 0.168-0.175 0.253-0.467 0.253-0.878v0-0.832c0-0.39-0.069-0.673-0.207-0.847-0.14-0.175-0.358-0.262-0.656-0.262v0h-0.77zM147.345 188.845v-10.781h1.694v10.781zM150.302 188.845v-10.781h2.125l1.648 6.453h0.031v-6.453h1.509v10.781h-1.74l-2.033-7.87h-0.031v7.87zM159.28 188.999c-0.821 0-1.448-0.234-1.878-0.702-0.431-0.466-0.647-1.136-0.647-2.009v0-5.667c0-0.873 0.216-1.543 0.647-2.012 0.431-0.466 1.058-0.699 1.878-0.699v0c0.821 0 1.448 0.233 1.879 0.699 0.431 0.468 0.647 1.139 0.647 2.012v0 0.924h-1.601v-1.032c0-0.708-0.293-1.063-0.878-1.063v0c-0.585 0-0.878 0.354-0.878 1.063v0 5.899c0 0.698 0.293 1.047 0.878 1.047v0c0.585 0 0.878-0.349 0.878-1.047v0-2.11h-0.848v-1.54h2.449v3.526c0 0.873-0.216 1.542-0.647 2.009-0.431 0.468-1.058 0.702-1.879 0.702zM165.364 188.845v-10.781h4.482v1.54h-2.788v3.004h2.187v1.54h-2.187v4.697zM169.722 188.845l1.756-10.781h2.295l1.756 10.781h-1.695l-0.308-2.141v0.031h-1.925l-0.308 2.11zM171.802 185.272h1.524l-0.754-5.329h-0.031zM176.345 188.845v-10.781h2.51c0.873 0 1.509 0.203 1.91 0.61 0.4 0.405 0.601 1.028 0.601 1.87v0 0.662c0 1.119-0.37 1.828-1.109 2.125v0 0.031c0.411 0.123 0.701 0.375 0.871 0.755 0.168 0.38 0.253 0.888 0.253 1.525v0 1.894c0 0.308 0.01 0.556 0.031 0.745 0.021 0.191 0.072 0.379 0.154 0.564v0h-1.725c-0.062-0.175-0.103-0.339-0.123-0.493-0.021-0.154-0.031-0.431-0.031-0.832v0-1.971c0-0.493-0.079-0.837-0.237-1.032-0.16-0.195-0.435-0.293-0.826-0.292v0h-0.585v4.62zM178.039 182.685h0.616c0.339 0 0.593-0.087 0.764-0.262 0.168-0.175 0.253-0.467 0.252-0.878v0-0.832c0-0.39-0.069-0.673-0.206-0.847-0.14-0.175-0.358-0.262-0.656-0.262v0h-0.77zM182.551 188.845v-10.781h2.418l1.079 7.716h0.03l1.078-7.716h2.418v10.781h-1.601v-8.163h-0.031l-1.232 8.163h-1.417l-1.232-8.163h-0.031v8.163zM190.837 188.845v-10.781h4.621v1.54h-2.927v2.85h2.326v1.54h-2.326v3.311h2.927v1.54zM196.428 188.845v-10.781h2.51c0.873 0 1.509 0.203 1.91 0.61 0.4 0.405 0.601 1.028 0.601 1.87v0 0.662c0 1.119-0.37 1.828-1.109 2.125v0 0.031c0.411 0.123 0.7 0.375 0.868 0.755 0.17 0.38 0.256 0.888 0.256 1.525v0 1.894c0 0.308 0.01 0.556 0.031 0.745 0.021 0.191 0.072 0.379 0.154 0.564v0h-1.725c-0.062-0.175-0.103-0.339-0.123-0.493-0.021-0.154-0.031-0.431-0.031-0.832v0-1.971c0-0.493-0.08-0.837-0.24-1.032-0.158-0.195-0.432-0.293-0.823-0.292v0h-0.585v4.62zM198.122 182.685h0.616c0.339 0 0.592-0.087 0.761-0.262 0.17-0.175 0.256-0.467 0.255-0.878v0-0.832c0-0.39-0.07-0.673-0.209-0.847-0.138-0.175-0.355-0.262-0.653-0.262v0h-0.77zM204.837 188.999c-0.821 0-1.443-0.234-1.864-0.702-0.421-0.466-0.631-1.136-0.631-2.009v0-0.616h1.602v0.74c0 0.698 0.293 1.047 0.877 1.047v0c0.287 0 0.505-0.085 0.653-0.256 0.15-0.168 0.225-0.443 0.225-0.822v0c0-0.452-0.103-0.85-0.308-1.195-0.205-0.343-0.585-0.756-1.139-1.239v0c-0.698-0.616-1.186-1.174-1.464-1.672-0.277-0.497-0.416-1.059-0.415-1.685v0c0-0.852 0.216-1.512 0.646-1.981 0.431-0.466 1.058-0.699 1.879-0.699v0c0.811 0 1.424 0.233 1.839 0.699 0.417 0.468 0.625 1.139 0.626 2.012v0 0.446h-1.602v-0.554c0-0.37-0.072-0.64-0.216-0.81-0.144-0.168-0.354-0.253-0.631-0.253v0c-0.565 0-0.847 0.344-0.847 1.032v0c0 0.39 0.105 0.755 0.314 1.094 0.212 0.339 0.594 0.75 1.149 1.232v0c0.708 0.616 1.196 1.176 1.463 1.678 0.267 0.503 0.4 1.093 0.4 1.772v0c0 0.883-0.219 1.561-0.656 2.033-0.435 0.472-1.069 0.708-1.9 0.708zM210.381 188.845l1.756-10.781h2.295l1.755 10.781h-1.694l-0.308-2.141v0.031h-1.925l-0.308 2.11zM212.46 185.272h1.525l-0.755-5.329h-0.03zM217.004 188.845v-10.781h2.125l1.648 6.453h0.031v-6.453h1.509v10.781h-1.74l-2.033-7.87h-0.031v7.87zM223.58 188.845v-10.781h2.587c0.842 0 1.473 0.226 1.895 0.678 0.421 0.452 0.631 1.114 0.631 1.987v0 5.452c0 0.873-0.21 1.535-0.631 1.986-0.421 0.452-1.052 0.678-1.895 0.678v0zM225.274 187.305h0.862c0.277 0 0.491-0.082 0.641-0.247 0.148-0.164 0.222-0.431 0.222-0.8v0-5.606c0-0.37-0.074-0.637-0.222-0.801-0.15-0.164-0.363-0.246-0.641-0.247v0h-0.862zM232.297 188.845v-10.781h1.694v9.241h2.788v1.54zM237.21 188.845l1.756-10.781h2.294l1.756 10.781h-1.694l-0.308-2.141v0.031h-1.925l-0.308 2.11zM239.289 185.272h1.525l-0.755-5.329h-0.031zM243.832 188.845v-10.781h2.126l1.648 6.453h0.03v-6.453h1.51v10.781h-1.741l-2.033-7.87h-0.03v7.87zM250.409 188.845v-10.781h2.587c0.842 0 1.473 0.226 1.894 0.678 0.421 0.452 0.631 1.114 0.632 1.987v0 5.452c0 0.873-0.21 1.535-0.632 1.986-0.421 0.452-1.052 0.678-1.894 0.678v0zM252.103 187.305h0.862c0.277 0 0.491-0.082 0.641-0.247 0.148-0.164 0.222-0.431 0.222-0.8v0-5.606c0-0.37-0.074-0.637-0.222-0.801-0.15-0.164-0.363-0.246-0.641-0.247v0h-0.862zM259.11 188.999c-0.832 0-1.468-0.236-1.91-0.708-0.442-0.472-0.662-1.14-0.662-2.003v0-5.667c0-0.862 0.221-1.53 0.662-2.002 0.442-0.472 1.078-0.708 1.91-0.709v0c0.832 0 1.468 0.236 1.91 0.709 0.442 0.472 0.662 1.14 0.662 2.002v0 5.667c0 0.862-0.221 1.53-0.662 2.003-0.442 0.472-1.078 0.708-1.91 0.708zM259.11 187.459c0.585 0 0.878-0.354 0.878-1.063v0-5.883c0-0.708-0.293-1.063-0.878-1.063v0c-0.585 0-0.878 0.354-0.878 1.063v0 5.883c0 0.708 0.293 1.063 0.878 1.063zM263.515 188.845l-1.094-10.781h1.633l0.754 8.286h0.031l0.801-8.286h1.848l0.801 8.286h0.031l0.755-8.286h1.463l-1.094 10.781h-2.11l-0.77-7.269h-0.031l-0.77 7.269zM271.4 188.845v-10.781h2.126l1.647 6.453h0.031v-6.453h1.51v10.781h-1.741l-2.033-7.87h-0.031v7.87zM277.976 188.845v-10.781h4.621v1.54h-2.926v2.85h2.325v1.54h-2.325v3.311h2.926v1.54zM283.567 188.845v-10.781h2.51c0.873 0 1.509 0.203 1.91 0.61 0.4 0.405 0.601 1.028 0.601 1.87v0 0.662c0 1.119-0.37 1.828-1.109 2.125v0 0.031c0.411 0.123 0.701 0.375 0.872 0.755 0.168 0.38 0.253 0.888 0.252 1.525v0 1.894c0 0.308 0.01 0.556 0.031 0.745 0.021 0.191 0.072 0.379 0.154 0.564v0h-1.725c-0.062-0.175-0.103-0.339-0.123-0.493-0.021-0.154-0.031-0.431-0.031-0.832v0-1.971c0-0.493-0.079-0.837-0.237-1.032-0.16-0.195-0.435-0.293-0.826-0.292v0h-0.585v4.62zM285.261 182.685h0.616c0.339 0 0.593-0.087 0.764-0.262 0.168-0.175 0.253-0.467 0.253-0.878v0-0.832c0-0.39-0.069-0.673-0.207-0.847-0.14-0.175-0.358-0.262-0.656-0.262v0h-0.77zM291.976 188.999c-0.821 0-1.443-0.234-1.864-0.702-0.421-0.466-0.631-1.136-0.631-2.009v0-0.616h1.602v0.74c0 0.698 0.293 1.047 0.878 1.047v0c0.287 0 0.506-0.085 0.656-0.256 0.148-0.168 0.222-0.443 0.221-0.822v0c0-0.452-0.103-0.85-0.308-1.195-0.205-0.343-0.585-0.756-1.139-1.239v0c-0.698-0.616-1.186-1.174-1.463-1.672-0.277-0.497-0.416-1.059-0.416-1.685v0c0-0.852 0.216-1.512 0.647-1.981 0.431-0.466 1.058-0.699 1.879-0.699v0c0.811 0 1.425 0.233 1.842 0.699 0.415 0.468 0.622 1.139 0.622 2.012v0 0.446h-1.602v-0.554c0-0.37-0.072-0.64-0.216-0.81-0.144-0.168-0.354-0.253-0.631-0.253v0c-0.565 0-0.847 0.344-0.847 1.032v0c0 0.39 0.106 0.755 0.317 1.094 0.209 0.339 0.591 0.75 1.146 1.232v0c0.708 0.616 1.196 1.176 1.463 1.678 0.267 0.503 0.4 1.093 0.401 1.772v0c0 0.883-0.218 1.561-0.653 2.033-0.437 0.472-1.072 0.708-1.904 0.708z" fill="#4d7e3e" fill-rule="nonzero" stroke="none" stroke-width="1" stroke-linecap="butt" stroke-linejoin="miter" stroke-miterlimit="10" stroke-dasharray="" stroke-dashoffset="0" font-family="none" font-weight="none" font-size="none" text-anchor="none" style="mix-blend-mode: normal" data-fill-palette-color="secondary"></path></g></g><g transform="matrix(1,0,0,1,29.331764404296877,41.8100741564011)"><svg viewBox="0 0 316.416 43.59931122088921" height="43.59931122088921" width="316.416"><g><svg viewBox="0 0 316.416 43.59931122088921" height="43.59931122088921" width="316.416"><g><svg viewBox="0 0 316.416 43.59931122088921" height="43.59931122088921" width="316.416"><g><svg viewBox="0 0 316.416 43.59931122088921" height="43.59931122088921" width="316.416"><g><svg viewBox="0 0 316.416 43.59931122088921" height="43.59931122088921" width="316.416" id="textblock"><g><svg viewBox="0 0 316.416 43.59931122088921" height="43.59931122088921" width="316.416"><g transform="matrix(1,0,0,1,0,0)"><svg width="316.416" viewBox="0.9500000476837158 -38.349998474121094 283.3799743652344 39.04999923706055" height="43.59931122088921" data-palette-color="#4d7e3e"><path d="M26.35-36L35.85-36 24.4-17.85 29.5 0 20 0 16.25-13.2 12.3-13.2 9.95 0 0.95 0 7.3-36 16.3-36 13.65-21 16.85-21 26.35-36ZM44.45-6.4L44.45-6.4Q45.6-6.4 46.5-6.9L46.5-6.9 46.25-1.25Q43.9 0.7 40.9 0.7L40.9 0.7Q36.35 0.7 35-1.4L35-1.4Q34.1-2.8 34.1-4.38 34.1-5.95 34.3-7.15L34.3-7.15 37.3-24.05 45.8-24.05 43-8.3Q42.95-8 42.95-7.75L42.95-7.75Q42.95-6.4 44.45-6.4ZM38.3-32.2L38.3-32.2Q38.3-35.4 39.72-36.88 41.15-38.35 44.15-38.35L44.15-38.35Q48.35-38.35 48.35-34.65L48.35-34.65Q48.35-31.5 46.92-30.05 45.5-28.6 42.45-28.6L42.45-28.6Q38.3-28.6 38.3-32.2ZM74.55-18.85L74.55-18.85Q74.55-17.2 73.55-15.8L73.55-15.8 65.35-15.8Q65.75-16.1 65.75-16.8 65.75-17.5 64.95-17.93 64.15-18.35 62.9-18.35L62.9-18.35Q59.15-18.35 59.15-16.05L59.15-16.05Q59.15-15.15 60.55-14.75 61.95-14.35 63.95-14.1 65.95-13.85 67.95-13.38 69.95-12.9 71.35-11.5 72.75-10.1 72.75-7.75L72.75-7.75Q72.75-3.6 69.42-1.45 66.1 0.7 59.75 0.7 53.4 0.7 50.85-1.35L50.85-1.35Q48.85-2.95 48.85-5.75L48.85-5.75Q48.85-6.55 49-7.4L49-7.4 57.35-7.5Q57.25-6.8 58.17-6.28 59.1-5.75 60.9-5.75 62.7-5.75 63.5-6.13 64.3-6.5 64.3-7.55L64.3-7.55Q64.3-8.25 62.9-8.53 61.5-8.8 59.47-9 57.45-9.2 55.42-9.65 53.4-10.1 52-11.55 50.6-13 50.6-15.35L50.6-15.35Q50.6-19.9 54.12-22.35 57.65-24.8 64.3-24.8L64.3-24.8Q74.55-24.8 74.55-18.85ZM100.44-7.7L100.44-7.7Q100.44-6.4 101.77-6.4 103.09-6.4 103.99-6.9L103.99-6.9 103.74-1.25Q101.34 0.7 98.34 0.7L98.34 0.7Q92.84 0.7 92.24-3.3L92.24-3.3Q89.74 0.7 84.89 0.7L84.89 0.7Q76.69 0.7 76.69-6.35L76.69-6.35Q76.69-7.55 76.94-9L76.94-9 77.99-14.85Q78.79-19.35 81.67-22.03 84.54-24.7 89.17-24.7 93.79-24.7 95.44-22.55L95.44-22.55 95.69-24.05 103.29-24.05 100.49-8.3Q100.44-8 100.44-7.7ZM86.29-13.85L85.64-10.1Q85.54-9.65 85.54-8.85 85.54-8.05 86.29-7.28 87.04-6.5 88.82-6.5 90.59-6.5 91.89-7.9L91.89-7.9 93.39-16.3Q92.84-17.55 90.79-17.55L90.79-17.55Q86.94-17.55 86.29-13.85L86.29-13.85ZM123.19-15.35L123.19-15.35Q123.19-17.5 121.12-17.5 119.04-17.5 117.69-15.95L117.69-15.95 114.89 0 106.39 0 110.64-24.05 118.54-24.05 117.99-21.1Q120.94-24.75 125.44-24.75 129.94-24.75 131.29-22.55L131.29-22.55Q132.14-21.15 132.14-19.35 132.14-17.55 131.89-16L131.89-16 130.54-8.3Q130.49-8 130.49-7.75L130.49-7.75Q130.49-6.4 131.99-6.4L131.99-6.4Q133.14-6.4 134.04-6.9L134.04-6.9 133.79-1.25Q131.44 0.7 128.44 0.7L128.44 0.7Q121.64 0.7 121.64-5L121.64-5Q121.64-6 121.84-7.15L121.84-7.15 123.04-13.8Q123.19-14.7 123.19-15.35ZM158.39-10.25L158.39-10.25Q158.39-6.8 163.36-6.8 168.34-6.8 168.34-9.9L168.34-9.9Q168.34-11.55 166.64-12.6 164.94-13.65 162.51-14.35 160.09-15.05 157.66-15.98 155.24-16.9 153.54-18.88 151.84-20.85 151.84-23.8L151.84-23.8Q151.84-36.35 167.99-36.35L167.99-36.35Q173.89-36.35 176.91-34.13 179.94-31.9 179.94-27.95L179.94-27.95Q179.94-26.5 179.56-25.18 179.19-23.85 178.79-23.3L178.79-23.3 178.39-22.7 169.54-22.7Q170.64-23.85 170.64-25.6L170.64-25.6Q170.64-28.85 166.39-28.85L166.39-28.85Q161.04-28.85 161.04-25.45L161.04-25.45Q161.04-23.75 162.74-22.75 164.44-21.75 166.86-21.18 169.29-20.6 171.74-19.75 174.19-18.9 175.89-16.93 177.59-14.95 177.59-11.8L177.59-11.8Q177.59-5.45 173.79-2.38 169.99 0.7 162.09 0.7 154.19 0.7 151.29-2.1L151.29-2.1Q149.14-4.2 149.14-7.9L149.14-7.9Q149.14-9.3 149.44-10.95L149.44-10.95 149.59-11.75 158.59-11.75 158.49-11.15Q158.39-10.65 158.39-10.25ZM204.83-7.7L204.83-7.7Q204.83-6.4 206.16-6.4 207.48-6.4 208.38-6.9L208.38-6.9 208.13-1.25Q205.73 0.7 202.73 0.7L202.73 0.7Q197.23 0.7 196.63-3.3L196.63-3.3Q194.13 0.7 189.28 0.7L189.28 0.7Q181.08 0.7 181.08-6.35L181.08-6.35Q181.08-7.55 181.33-9L181.33-9 182.38-14.85Q183.18-19.35 186.06-22.03 188.93-24.7 193.56-24.7 198.18-24.7 199.83-22.55L199.83-22.55 200.08-24.05 207.68-24.05 204.88-8.3Q204.83-8 204.83-7.7ZM190.68-13.85L190.03-10.1Q189.93-9.65 189.93-8.85 189.93-8.05 190.68-7.28 191.43-6.5 193.21-6.5 194.98-6.5 196.28-7.9L196.28-7.9 197.78-16.3Q197.23-17.55 195.18-17.55L195.18-17.55Q191.33-17.55 190.68-13.85L190.68-13.85ZM222.18 0.7L222.18 0.7Q216.38 0.7 213.83-1.9L213.83-1.9Q211.93-3.8 211.93-7L211.93-7Q211.93-8.05 212.13-9.25L212.13-9.25 215.53-28.6 224.68-32.4 223.23-24.05 237.03-24.05 235.78-17 221.98-17 220.98-11.35Q220.78-10.4 220.78-9.65L220.78-9.65Q220.78-6.5 223.78-6.5L223.78-6.5Q225.38-6.5 226.46-7.85 227.53-9.2 227.93-11.45L227.93-11.45 236.23-11.45Q234.13 0.7 222.18 0.7ZM264.88-6.4L264.88-6.4Q266.03-6.4 266.93-6.9L266.93-6.9 266.68-1.25Q264.33 0.7 261.33 0.7L261.33 0.7Q254.53 0.7 254.53-5L254.53-5Q254.53-6 254.73-7.15L254.73-7.15 255.83-13.3Q255.98-14.2 255.98-15.1L255.98-15.1Q255.98-17.5 253.45-17.5 250.93-17.5 249.53-15.8L249.53-15.8 246.73 0 238.23 0 244.93-37.95 253.43-37.95 250.58-21.8Q253.33-24.75 257.48-24.75L257.48-24.75Q262.53-24.75 264.03-22.5L264.03-22.5Q265.08-21 265.08-19.15 265.08-17.3 264.78-15.75L264.78-15.75 263.43-8.3Q263.38-8 263.38-7.75L263.38-7.75Q263.38-6.4 264.88-6.4ZM280.43-6.4L280.43-6.4Q281.58-6.4 282.48-6.9L282.48-6.9 282.23-1.25Q279.88 0.7 276.88 0.7L276.88 0.7Q272.33 0.7 270.98-1.4L270.98-1.4Q270.08-2.8 270.08-4.38 270.08-5.95 270.28-7.15L270.28-7.15 273.28-24.05 281.78-24.05 278.98-8.3Q278.93-8 278.93-7.75L278.93-7.75Q278.93-6.4 280.43-6.4ZM274.28-32.2L274.28-32.2Q274.28-35.4 275.7-36.88 277.13-38.35 280.13-38.35L280.13-38.35Q284.33-38.35 284.33-34.65L284.33-34.65Q284.33-31.5 282.9-30.05 281.48-28.6 278.43-28.6L278.43-28.6Q274.28-28.6 274.28-32.2Z" opacity="1" transform="matrix(1,0,0,1,0,0)" fill="#4d7e3e" class="undefined-text-0" data-fill-palette-color="primary" id="text-0"></path></svg></g></svg></g></svg></g></svg></g><g></g></svg></g></svg></g></svg></g></svg></g><defs></defs></svg><rect width="375.07952880859375" height="127.2194595336914" fill="none" stroke="none" visibility="hidden"></rect></g></svg></g></svg>